<?xml version="1.0" standalone="no"?>
<!DOCTYPE svg PUBLIC "-//W3C//DTD SVG 1.1//EN" "http://www.w3.org/Graphics/SVG/1.1/DTD/svg11.dtd"><svg t="1716598004615"
  class="icon" viewBox="0 0 1024 1024" version="1.1" xmlns="http://www.w3.org/2000/svg" p-id="33784"
  xmlns:xlink="http://www.w3.org/1999/xlink" width="200" height="200">
  <path
    d="M508 912c-2.6 3.4 2.6 3.4 0 0zM616.2 697.2V247.4c0-72.4-58.8-131.2-131.2-131.2-72.4 0-131.2 58.8-131.2 131.2v452.8h1c-1.4 2-1.4 5 0.2 7.2L508 912l29.8-61.8 78.4-153z"
    fill="#FFFFFF" p-id="33785"></path>
  <path d="M669.2 700.2H406.6V247.4c0-72.4 58.8-131.2 131.2-131.2 72.4 0 131.2 58.8 131.2 131.2v452.8h0.2z"
    fill="#3769A5" p-id="33786"></path>
  <path d="M505.4 111c-66 9.8-116.6 64-116.6 129.6v452.8h233V240.6c0-65.6-50.4-120-116.4-129.6z" fill="#4E9BD4"
    p-id="33787"></path>
  <path d="M621.8 296.4v-55.8c0-65.6-50.6-120-116.6-129.6-66 9.8-116.6 64-116.6 129.6v55.8h233.2z" fill="#4077BB"
    p-id="33788"></path>
  <path d="M663.8 697.2H388.8l97.4 152.8 29.8 62c2.6 3.4-2.6 3.4 0 0l153-204.6c3.2-4.2 0.2-10.2-5.2-10.2z"
    fill="#FFE4B8" p-id="33789"></path>
  <path d="M459.6 850.2l46.2 61.8c2.6 3.4 7.6 3.4 10.2 0l46.2-61.8h-102.6z" fill="#4077BB" p-id="33790"></path>
  <path d="M621.8 697.2l-74.2 153h20l95.2-134.8v-18.2z" fill="#E7D0A9" p-id="33791"></path>
  <path d="M353.8 373.2c-6.6 0-12 5.4-12 12v46c0 6.6 5.4 12 12 12s12-5.4 12-12v-46c0-6.6-5.4-12-12-12z" p-id="33792">
  </path>
  <path
    d="M353.6 370c6.6 0 12-5.4 12-12v-47.8h268c6.6 0 12-5.4 12-12s-5.4-12-12-12h-268v-19.6c0-80 65.2-145.2 145.2-145.2S656 186.6 656 266.6V554c0 6.6 5.4 12 12 12s12-5.4 12-12V266.6c0-93.2-76-169.2-169.2-169.2s-169.2 76-169.2 169.2V358c0 6.6 5.4 12 12 12zM668.2 569.4c-6.6 0-12 5.4-12 12v100H388.8c-6.6 0-12 5.4-12 12s5.4 12 12 12h266c-1.6 6.6-4.4 13-8.6 18.6L516 900c-1.8 2.2-4 2.6-5.2 2.6s-3.2-0.4-4.8-2.4l-130.2-176c-6.6-9-10.2-19.8-10.2-30.8V458.2c0-6.6-5.4-12-12-12s-12 5.4-12 12v235.2c0 16.2 5 31.6 14.8 45l130.2 176c5.6 7.8 14.4 12.2 24 12.2h0.2c9.6 0 18.4-4.4 24.4-12.2l130.2-176c9.6-13.2 14.6-28.8 14.6-44.8v-112c0.2-6.8-5.2-12.2-11.8-12.2z"
    p-id="33793"></path>
  <path
    d="M465.6 163.4c-31 0-56.2 25.2-56.2 56.2 0 3.8 3.2 7 7 7s7-3.2 7-7c0-23.2 19-42.2 42.2-42.2 3.8 0 7-3.2 7-7s-3.2-7-7-7zM416.4 238.6c-3.8 0-7 3.2-7 7v11c0 3.8 3.2 7 7 7s7-3.2 7-7v-11c0-3.8-3.2-7-7-7zM416.4 577.2c-3.8 0-7 3.2-7 7v65.4c0 3.8 3.2 7 7 7s7-3.2 7-7v-65.4c0-3.8-3.2-7-7-7z"
    fill="#FFFFFF" p-id="33794"></path>
  <path
    d="M743.4 136.4h-7v-7c0-3.8-3.2-7-7-7s-7 3.2-7 7v7h-7c-3.8 0-7 3.2-7 7s3.2 7 7 7h7v7c0 3.8 3.2 7 7 7s7-3.2 7-7v-7h7c3.8 0 7-3.2 7-7s-3.2-7-7-7z"
    fill="#FBD20A" p-id="33795"></path>
  <path
    d="M303.6 707.2h-7v-7c0-3.8-3.2-7-7-7s-7 3.2-7 7v7h-7c-3.8 0-7 3.2-7 7s3.2 7 7 7h7v7c0 3.8 3.2 7 7 7s7-3.2 7-7v-7h7c3.8 0 7-3.2 7-7s-3.2-7-7-7z"
    fill="#F16723" p-id="33796"></path>
  <path
    d="M684.2 816.8h-7v-7c0-3.8-3.2-7-7-7s-7 3.2-7 7v7h-7c-3.8 0-7 3.2-7 7s3.2 7 7 7h7v7c0 3.8 3.2 7 7 7s7-3.2 7-7v-7h7c3.8 0 7-3.2 7-7s-3.2-7-7-7z"
    fill="#4E9BD4" p-id="33797"></path>
  <path
    d="M750 465.4c-11.4 0-20.6-9.2-20.6-20.6s9.2-20.6 20.6-20.6 20.6 9.2 20.6 20.6c0 11.4-9.2 20.6-20.6 20.6z m0-27.2c-3.6 0-6.6 3-6.6 6.6s3 6.6 6.6 6.6 6.6-3 6.6-6.6-3-6.6-6.6-6.6z"
    fill="#F16723" p-id="33798"></path>
  <path d="M740.6 504.2m-4.2 0a4.2 4.2 0 1 0 8.4 0 4.2 4.2 0 1 0-8.4 0Z" p-id="33799"></path>
  <path d="M783.4 143.4m-4.2 0a4.2 4.2 0 1 0 8.4 0 4.2 4.2 0 1 0-8.4 0Z" p-id="33800"></path>
  <path d="M378 88.2m-4.2 0a4.2 4.2 0 1 0 8.4 0 4.2 4.2 0 1 0-8.4 0Z" p-id="33801"></path>
  <path d="M313.8 793m-4.2 0a4.2 4.2 0 1 0 8.4 0 4.2 4.2 0 1 0-8.4 0Z" p-id="33802"></path>
  <path d="M422 882.4m-4.2 0a4.2 4.2 0 1 0 8.4 0 4.2 4.2 0 1 0-8.4 0Z" p-id="33803"></path>
  <path d="M349 94.4m-6.2 0a6.2 6.2 0 1 0 12.4 0 6.2 6.2 0 1 0-12.4 0Z" p-id="33804"></path>
  <path
    d="M289.8 194.8c-13.2 0-23.8-10.6-23.8-23.8s10.6-23.8 23.8-23.8 23.8 10.6 23.8 23.8c0 13.2-10.6 23.8-23.8 23.8z m0-33.6c-5.4 0-9.8 4.4-9.8 9.8s4.4 9.8 9.8 9.8 9.8-4.4 9.8-9.8-4.4-9.8-9.8-9.8z"
    fill="#FBD20A" p-id="33805"></path>
  <path
    d="M273 448c-9.2 0-16.8-7.6-16.8-16.8s7.6-16.8 16.8-16.8 16.8 7.6 16.8 16.8-7.6 16.8-16.8 16.8z m0-19.6c-1.6 0-2.8 1.2-2.8 2.8s1.2 2.8 2.8 2.8 2.8-1.2 2.8-2.8-1.2-2.8-2.8-2.8z"
    fill="#4E9BD4" p-id="33806"></path>
</svg>